STARTFONT 2.1
FONT -Adobe-Utopia-Regular-R-Normal--12-120-75-75-P-67-ISO8859-2
SIZE 12 75 75
FONTBOUNDINGBOX 16 13 -2 -3
STARTPROPERTIES 29
FOUNDRY "Adobe"
FAMILY_NAME "Utopia"
WEIGHT_NAME "Regular"
SLANT "R"
SETWIDTH_NAME "Normal"
ADD_STYLE_NAME ""
PIXEL_SIZE 12
POINT_SIZE 120
RESOLUTION_X 75
RESOLUTION_Y 75
SPACING "P"
AVERAGE_WIDTH 67
CHARSET_REGISTRY "ISO8859"
CHARSET_ENCODING "2"
CAP_HEIGHT 9
X_HEIGHT 6
RELATIVE_SETWIDTH 50
RELATIVE_WEIGHT 50
WEIGHT 136
FACE_NAME "Utopia Regular"
COPYRIGHT "Copyright (c) 1989, 1991 Adobe Systems Incorporated.  All rights reserved., Copyright 1996 Cub Soft"
NOTICE "Utopia is a registered trademark of Adobe Systems Incorporated."
DESTINATION 0
FONT_ASCENT 10
FONT_DESCENT 3
DEFAULT_CHAR 32
_ADOBE_PSFONT "Utopia-Regular"
_ADOBE_XFONT "-Adobe-Utopia-Regular-R-Normal--12-120-75-75-P-67-ISO8859-2"
_DEC_DEVICE_FONTNAMES "PS=Utopia-Regular"
ENDPROPERTIES
CHARS 191
STARTCHAR space
ENCODING 32
SWIDTH 225 0
DWIDTH 3 0
BBX 0 0 0 0
BITMAP
ENDCHAR
STARTCHAR exclam
ENCODING 33
SWIDTH 242 0
DWIDTH 3 0
BBX 1 9 1 0
BITMAP
80
80
80
80
80
80
00
80
80
ENDCHAR
STARTCHAR quotedbl
ENCODING 34
SWIDTH 458 0
DWIDTH 5 0
BBX 3 3 1 6
BITMAP
a0
a0
a0
ENDCHAR
STARTCHAR numbersign
ENCODING 35
SWIDTH 530 0
DWIDTH 6 0
BBX 6 8 0 1
BITMAP
28
28
7c
28
50
f8
50
50
ENDCHAR
STARTCHAR dollar
ENCODING 36
SWIDTH 530 0
DWIDTH 6 0
BBX 5 11 0 -1
BITMAP
20
70
a8
a0
e0
70
38
28
a8
70
20
ENDCHAR
STARTCHAR percent
ENCODING 37
SWIDTH 838 0
DWIDTH 10 0
BBX 9 9 0 0
BITMAP
6200
9e00
9400
9800
6b00
1480
2480
2480
4300
ENDCHAR
STARTCHAR ampersand
ENCODING 38
SWIDTH 706 0
DWIDTH 9 0
BBX 8 9 0 0
BITMAP
30
48
48
30
52
8a
84
c6
79
ENDCHAR
STARTCHAR apostrophe
ENCODING 39
SWIDTH 278 0
DWIDTH 3 0
BBX 2 3 0 6
BITMAP
40
40
80
ENDCHAR
STARTCHAR parenleft
ENCODING 40
SWIDTH 350 0
DWIDTH 4 0
BBX 3 11 0 -2
BITMAP
20
40
80
80
80
80
80
80
80
40
20
ENDCHAR
STARTCHAR parenright
ENCODING 41
SWIDTH 350 0
DWIDTH 4 0
BBX 3 11 0 -2
BITMAP
80
40
20
20
20
20
20
20
20
40
80
ENDCHAR
STARTCHAR asterisk
ENCODING 42
SWIDTH 412 0
DWIDTH 5 0
BBX 5 5 0 4
BITMAP
20
a8
70
a8
20
ENDCHAR
STARTCHAR plus
ENCODING 43
SWIDTH 570 0
DWIDTH 7 0
BBX 5 5 1 1
BITMAP
20
20
f8
20
20
ENDCHAR
STARTCHAR comma
ENCODING 44
SWIDTH 265 0
DWIDTH 3 0
BBX 2 3 0 -1
BITMAP
40
40
80
ENDCHAR
STARTCHAR minus
ENCODING 45
SWIDTH 570 0
DWIDTH 7 0
BBX 6 1 0 3
BITMAP
fc
ENDCHAR
STARTCHAR period
ENCODING 46
SWIDTH 265 0
DWIDTH 3 0
BBX 1 2 1 0
BITMAP
80
80
ENDCHAR
STARTCHAR slash
ENCODING 47
SWIDTH 460 0
DWIDTH 6 0
BBX 4 9 1 0
BITMAP
10
10
20
20
20
40
40
80
80
ENDCHAR
STARTCHAR zero
ENCODING 48
SWIDTH 530 0
DWIDTH 6 0
BBX 5 9 0 0
BITMAP
70
d8
88
88
88
88
88
d8
70
ENDCHAR
STARTCHAR one
ENCODING 49
SWIDTH 530 0
DWIDTH 6 0
BBX 3 9 1 0
BITMAP
40
c0
40
40
40
40
40
40
e0
ENDCHAR
STARTCHAR two
ENCODING 50
SWIDTH 530 0
DWIDTH 6 0
BBX 5 9 0 0
BITMAP
70
d8
88
18
30
60
c0
88
f8
ENDCHAR
STARTCHAR three
ENCODING 51
SWIDTH 530 0
DWIDTH 6 0
BBX 5 9 0 0
BITMAP
70
c8
08
18
70
08
08
d8
70
ENDCHAR
STARTCHAR four
ENCODING 52
SWIDTH 530 0
DWIDTH 6 0
BBX 5 9 0 0
BITMAP
30
20
60
50
50
90
f8
10
38
ENDCHAR
STARTCHAR five
ENCODING 53
SWIDTH 530 0
DWIDTH 6 0
BBX 5 9 0 0
BITMAP
f8
80
80
f0
98
08
08
d8
70
ENDCHAR
STARTCHAR six
ENCODING 54
SWIDTH 530 0
DWIDTH 6 0
BBX 5 9 0 0
BITMAP
70
d8
80
b0
d8
88
88
d8
70
ENDCHAR
STARTCHAR seven
ENCODING 55
SWIDTH 530 0
DWIDTH 6 0
BBX 5 9 0 0
BITMAP
f8
88
18
10
30
20
60
40
40
ENDCHAR
STARTCHAR eight
ENCODING 56
SWIDTH 530 0
DWIDTH 6 0
BBX 5 9 0 0
BITMAP
70
98
88
c8
70
98
88
c8
70
ENDCHAR
STARTCHAR nine
ENCODING 57
SWIDTH 530 0
DWIDTH 6 0
BBX 5 9 0 0
BITMAP
70
d8
88
88
d8
68
08
d8
70
ENDCHAR
STARTCHAR colon
ENCODING 58
SWIDTH 265 0
DWIDTH 3 0
BBX 1 6 1 0
BITMAP
80
80
00
00
80
80
ENDCHAR
STARTCHAR semicolon
ENCODING 59
SWIDTH 265 0
DWIDTH 3 0
BBX 2 7 0 -1
BITMAP
40
40
00
00
40
40
80
ENDCHAR
STARTCHAR less
ENCODING 60
SWIDTH 570 0
DWIDTH 7 0
BBX 6 5 0 1
BITMAP
0c
30
c0
30
0c
ENDCHAR
STARTCHAR equal
ENCODING 61
SWIDTH 570 0
DWIDTH 7 0
BBX 5 3 1 2
BITMAP
f8
00
f8
ENDCHAR
STARTCHAR greater
ENCODING 62
SWIDTH 570 0
DWIDTH 7 0
BBX 6 5 0 1
BITMAP
c0
30
0c
30
c0
ENDCHAR
STARTCHAR question
ENCODING 63
SWIDTH 389 0
DWIDTH 5 0
BBX 4 9 0 0
BITMAP
60
90
10
20
40
60
00
40
40
ENDCHAR
STARTCHAR at
ENCODING 64
SWIDTH 793 0
DWIDTH 11 0
BBX 9 9 1 0
BITMAP
3e00
4100
8e80
9280
a480
ad00
b600
4000
3e00
ENDCHAR
STARTCHAR A
ENCODING 65
SWIDTH 635 0
DWIDTH 8 0
BBX 9 9 -1 0
BITMAP
0800
0c00
1400
1600
2200
3e00
2300
4100
e380
ENDCHAR
STARTCHAR B
ENCODING 66
SWIDTH 646 0
DWIDTH 8 0
BBX 7 9 0 0
BITMAP
fc
42
42
44
7c
42
42
46
fc
ENDCHAR
STARTCHAR C
ENCODING 67
SWIDTH 684 0
DWIDTH 8 0
BBX 7 9 0 0
BITMAP
3c
46
c0
80
80
80
c2
46
3c
ENDCHAR
STARTCHAR D
ENCODING 68
SWIDTH 779 0
DWIDTH 9 0
BBX 8 9 0 0
BITMAP
fc
42
43
41
41
41
43
42
fc
ENDCHAR
STARTCHAR E
ENCODING 69
SWIDTH 606 0
DWIDTH 8 0
BBX 7 9 0 0
BITMAP
fc
44
40
48
78
48
40
42
fe
ENDCHAR
STARTCHAR F
ENCODING 70
SWIDTH 580 0
DWIDTH 7 0
BBX 6 9 0 0
BITMAP
fc
44
40
48
78
48
40
40
e0
ENDCHAR
STARTCHAR G
ENCODING 71
SWIDTH 734 0
DWIDTH 9 0
BBX 8 9 0 0
BITMAP
3c
46
c0
80
80
87
c2
42
3c
ENDCHAR
STARTCHAR H
ENCODING 72
SWIDTH 798 0
DWIDTH 10 0
BBX 9 9 0 0
BITMAP
e380
4100
4100
4100
7f00
4100
4100
4100
e380
ENDCHAR
STARTCHAR I
ENCODING 73
SWIDTH 349 0
DWIDTH 4 0
BBX 3 9 0 0
BITMAP
e0
40
40
40
40
40
40
40
e0
ENDCHAR
STARTCHAR J
ENCODING 74
SWIDTH 350 0
DWIDTH 4 0
BBX 4 11 -1 -2
BITMAP
70
20
20
20
20
20
20
20
20
20
c0
ENDCHAR
STARTCHAR K
ENCODING 75
SWIDTH 658 0
DWIDTH 8 0
BBX 8 9 0 0
BITMAP
e6
44
48
50
70
58
4c
46
e3
ENDCHAR
STARTCHAR L
ENCODING 76
SWIDTH 568 0
DWIDTH 7 0
BBX 6 9 0 0
BITMAP
e0
40
40
40
40
40
40
44
fc
ENDCHAR
STARTCHAR M
ENCODING 77
SWIDTH 944 0
DWIDTH 12 0
BBX 11 9 0 0
BITMAP
e0e0
60c0
7140
5140
5a40
4a40
4c40
4440
e0e0
ENDCHAR
STARTCHAR N
ENCODING 78
SWIDTH 780 0
DWIDTH 10 0
BBX 9 9 0 0
BITMAP
e380
6100
5100
5900
4900
4500
4700
4300
e100
ENDCHAR
STARTCHAR O
ENCODING 79
SWIDTH 762 0
DWIDTH 9 0
BBX 8 9 0 0
BITMAP
3c
42
c3
81
81
81
c3
42
3c
ENDCHAR
STARTCHAR P
ENCODING 80
SWIDTH 600 0
DWIDTH 8 0
BBX 7 9 0 0
BITMAP
fc
42
42
46
7c
40
40
40
e0
ENDCHAR
STARTCHAR Q
ENCODING 81
SWIDTH 762 0
DWIDTH 9 0
BBX 8 12 0 -3
BITMAP
3c
42
c3
81
81
81
c3
42
3c
0c
04
03
ENDCHAR
STARTCHAR R
ENCODING 82
SWIDTH 644 0
DWIDTH 8 0
BBX 8 9 0 0
BITMAP
fc
42
42
44
78
4c
44
46
e3
ENDCHAR
STARTCHAR S
ENCODING 83
SWIDTH 541 0
DWIDTH 7 0
BBX 6 9 0 0
BITMAP
78
cc
80
60
38
0c
84
cc
78
ENDCHAR
STARTCHAR T
ENCODING 84
SWIDTH 621 0
DWIDTH 8 0
BBX 7 9 0 0
BITMAP
fe
92
10
10
10
10
10
10
38
ENDCHAR
STARTCHAR U
ENCODING 85
SWIDTH 791 0
DWIDTH 10 0
BBX 9 9 0 0
BITMAP
e380
4100
4100
4100
4100
4100
4100
6300
3e00
ENDCHAR
STARTCHAR V
ENCODING 86
SWIDTH 634 0
DWIDTH 8 0
BBX 9 9 -1 0
BITMAP
e380
4100
6200
2200
2200
3400
1400
1800
0800
ENDCHAR
STARTCHAR W
ENCODING 87
SWIDTH 940 0
DWIDTH 12 0
BBX 11 9 0 0
BITMAP
e0e0
4440
4440
6640
2a80
2a80
3b80
1100
1100
ENDCHAR
STARTCHAR X
ENCODING 88
SWIDTH 624 0
DWIDTH 8 0
BBX 7 9 0 0
BITMAP
ee
44
28
38
10
38
28
44
ee
ENDCHAR
STARTCHAR Y
ENCODING 89
SWIDTH 588 0
DWIDTH 8 0
BBX 7 9 0 0
BITMAP
ee
44
64
28
38
10
10
10
38
ENDCHAR
STARTCHAR Z
ENCODING 90
SWIDTH 610 0
DWIDTH 8 0
BBX 7 9 0 0
BITMAP
fe
8c
08
10
30
20
40
c2
fe
ENDCHAR
STARTCHAR bracketleft
ENCODING 91
SWIDTH 330 0
DWIDTH 4 0
BBX 2 11 1 -2
BITMAP
c0
80
80
80
80
80
80
80
80
80
c0
ENDCHAR
STARTCHAR backslash
ENCODING 92
SWIDTH 460 0
DWIDTH 6 0
BBX 4 9 1 0
BITMAP
80
80
40
40
40
20
20
10
10
ENDCHAR
STARTCHAR bracketright
ENCODING 93
SWIDTH 330 0
DWIDTH 4 0
BBX 2 11 0 -2
BITMAP
c0
40
40
40
40
40
40
40
40
40
c0
ENDCHAR
STARTCHAR asciicircum
ENCODING 94
SWIDTH 570 0
DWIDTH 7 0
BBX 5 6 1 3
BITMAP
20
20
50
50
88
88
ENDCHAR
STARTCHAR underscore
ENCODING 95
SWIDTH 500 0
DWIDTH 6 0
BBX 6 1 0 -2
BITMAP
fc
ENDCHAR
STARTCHAR grave
ENCODING 96
SWIDTH 400 0
DWIDTH 5 0
BBX 3 2 1 7
BITMAP
c0
20
ENDCHAR
STARTCHAR a
ENCODING 97
SWIDTH 523 0
DWIDTH 6 0
BBX 5 6 0 0
BITMAP
e0
10
70
d0
90
78
ENDCHAR
STARTCHAR b
ENCODING 98
SWIDTH 598 0
DWIDTH 7 0
BBX 7 10 -1 0
BITMAP
c0
40
40
40
5c
66
42
42
66
5c
ENDCHAR
STARTCHAR c
ENCODING 99
SWIDTH 496 0
DWIDTH 6 0
BBX 5 6 0 0
BITMAP
70
d8
80
80
c8
70
ENDCHAR
STARTCHAR d
ENCODING 100
SWIDTH 598 0
DWIDTH 8 0
BBX 7 10 0 0
BITMAP
0c
04
04
04
74
cc
84
84
cc
76
ENDCHAR
STARTCHAR e
ENCODING 101
SWIDTH 514 0
DWIDTH 6 0
BBX 5 6 0 0
BITMAP
70
88
f8
80
c8
70
ENDCHAR
STARTCHAR f
ENCODING 102
SWIDTH 319 0
DWIDTH 4 0
BBX 4 10 0 0
BITMAP
30
40
40
40
f0
40
40
40
40
e0
ENDCHAR
STARTCHAR g
ENCODING 103
SWIDTH 520 0
DWIDTH 7 0
BBX 6 9 0 -3
BITMAP
7c
88
88
70
20
78
8c
84
78
ENDCHAR
STARTCHAR h
ENCODING 104
SWIDTH 607 0
DWIDTH 8 0
BBX 7 10 0 0
BITMAP
c0
40
40
40
58
6c
44
44
44
ee
ENDCHAR
STARTCHAR i
ENCODING 105
SWIDTH 291 0
DWIDTH 4 0
BBX 3 9 0 0
BITMAP
40
40
00
c0
40
40
40
40
e0
ENDCHAR
STARTCHAR j
ENCODING 106
SWIDTH 280 0
DWIDTH 4 0
BBX 3 12 -1 -3
BITMAP
20
20
00
60
20
20
20
20
20
20
20
c0
ENDCHAR
STARTCHAR k
ENCODING 107
SWIDTH 524 0
DWIDTH 7 0
BBX 7 10 0 0
BITMAP
c0
40
40
40
4c
50
70
58
4c
e6
ENDCHAR
STARTCHAR l
ENCODING 108
SWIDTH 279 0
DWIDTH 4 0
BBX 3 10 0 0
BITMAP
c0
40
40
40
40
40
40
40
40
e0
ENDCHAR
STARTCHAR m
ENCODING 109
SWIDTH 923 0
DWIDTH 12 0
BBX 11 6 0 0
BITMAP
d980
6ec0
4440
4440
4440
eee0
ENDCHAR
STARTCHAR n
ENCODING 110
SWIDTH 619 0
DWIDTH 8 0
BBX 7 6 0 0
BITMAP
d8
6c
44
44
44
ee
ENDCHAR
STARTCHAR o
ENCODING 111
SWIDTH 577 0
DWIDTH 7 0
BBX 6 6 0 0
BITMAP
78
cc
84
84
cc
78
ENDCHAR
STARTCHAR p
ENCODING 112
SWIDTH 608 0
DWIDTH 8 0
BBX 7 9 0 -3
BITMAP
dc
66
42
42
66
5c
40
40
e0
ENDCHAR
STARTCHAR q
ENCODING 113
SWIDTH 591 0
DWIDTH 7 0
BBX 7 9 0 -3
BITMAP
74
cc
84
84
cc
74
04
04
0e
ENDCHAR
STARTCHAR r
ENCODING 114
SWIDTH 389 0
DWIDTH 5 0
BBX 5 6 0 0
BITMAP
d8
60
40
40
40
e0
ENDCHAR
STARTCHAR s
ENCODING 115
SWIDTH 436 0
DWIDTH 5 0
BBX 4 6 0 0
BITMAP
70
90
c0
30
90
e0
ENDCHAR
STARTCHAR t
ENCODING 116
SWIDTH 344 0
DWIDTH 5 0
BBX 4 7 0 0
BITMAP
40
f0
40
40
40
40
30
ENDCHAR
STARTCHAR u
ENCODING 117
SWIDTH 606 0
DWIDTH 8 0
BBX 7 6 0 0
BITMAP
cc
44
44
44
6c
36
ENDCHAR
STARTCHAR v
ENCODING 118
SWIDTH 504 0
DWIDTH 6 0
BBX 7 6 -1 0
BITMAP
ee
44
64
28
38
10
ENDCHAR
STARTCHAR w
ENCODING 119
SWIDTH 768 0
DWIDTH 10 0
BBX 9 6 0 0
BITMAP
eb80
4900
6d00
2500
3600
1200
ENDCHAR
STARTCHAR x
ENCODING 120
SWIDTH 486 0
DWIDTH 7 0
BBX 6 6 0 0
BITMAP
ec
48
30
30
48
dc
ENDCHAR
STARTCHAR y
ENCODING 121
SWIDTH 506 0
DWIDTH 6 0
BBX 7 9 -1 -3
BITMAP
ee
44
64
28
38
10
10
20
60
ENDCHAR
STARTCHAR z
ENCODING 122
SWIDTH 480 0
DWIDTH 6 0
BBX 5 6 0 0
BITMAP
f8
90
20
40
88
f8
ENDCHAR
STARTCHAR braceleft
ENCODING 123
SWIDTH 340 0
DWIDTH 4 0
BBX 3 11 0 -2
BITMAP
20
40
40
40
40
80
40
40
40
40
20
ENDCHAR
STARTCHAR bar
ENCODING 124
SWIDTH 228 0
DWIDTH 3 0
BBX 1 9 1 0
BITMAP
80
80
80
80
80
80
80
80
80
ENDCHAR
STARTCHAR braceright
ENCODING 125
SWIDTH 340 0
DWIDTH 4 0
BBX 3 11 0 -2
BITMAP
80
40
40
40
40
20
40
40
40
40
80
ENDCHAR
STARTCHAR asciitilde
ENCODING 126
SWIDTH 570 0
DWIDTH 7 0
BBX 5 2 1 3
BITMAP
68
b0
ENDCHAR
STARTCHAR nobreakspace
ENCODING 160
SWIDTH 225 0
DWIDTH 3 0
BBX 0 0 0 0
BITMAP
ENDCHAR
STARTCHAR Aogonek
ENCODING 161
SWIDTH 635 0
DWIDTH 8 0
BBX 9 12 -1 -3
BITMAP
0800
0c00
1400
1600
2200
3e00
2300
4100
e380
0400
0800
0c00
ENDCHAR
STARTCHAR breve
ENCODING 162
SWIDTH 400 0
DWIDTH 6 0
BBX 5 2 0 7
BITMAP
88
70
ENDCHAR
STARTCHAR Lstroke
ENCODING 163
SWIDTH 574 0
DWIDTH 7 0
BBX 6 9 0 0
BITMAP
e0
40
40
60
40
c0
40
44
fc
ENDCHAR
STARTCHAR currency
ENCODING 164
SWIDTH 530 0
DWIDTH 6 0
BBX 5 7 0 1
BITMAP
88
70
88
88
88
70
88
ENDCHAR
STARTCHAR Lcaron
ENCODING 165
SWIDTH 568 0
DWIDTH 7 0
BBX 6 10 0 0
BITMAP
04
e4
48
40
40
40
40
40
44
fc
ENDCHAR
STARTCHAR Sacute
ENCODING 166
SWIDTH 541 0
DWIDTH 7 0
BBX 6 12 0 0
BITMAP
18
20
00
78
cc
80
60
38
0c
84
cc
78
ENDCHAR
STARTCHAR section
ENCODING 167
SWIDTH 554 0
DWIDTH 7 0
BBX 6 11 0 -2
BITMAP
38
48
60
90
c8
64
34
18
08
48
70
ENDCHAR
STARTCHAR diaeresis
ENCODING 168
SWIDTH 400 0
DWIDTH 5 0
BBX 3 1 1 7
BITMAP
a0
ENDCHAR
STARTCHAR Scaron
ENCODING 169
SWIDTH 541 0
DWIDTH 7 0
BBX 6 12 0 0
BITMAP
50
20
00
78
cc
80
60
38
0c
84
cc
78
ENDCHAR
STARTCHAR Scedilla
ENCODING 170
SWIDTH 541 0
DWIDTH 7 0
BBX 6 12 0 -3
BITMAP
78
cc
80
60
38
0c
84
cc
78
20
10
30
ENDCHAR
STARTCHAR Tcaron
ENCODING 171
SWIDTH 621 0
DWIDTH 8 0
BBX 7 12 0 0
BITMAP
28
10
00
fe
92
10
10
10
10
10
10
38
ENDCHAR
STARTCHAR Zacute
ENCODING 172
SWIDTH 610 0
DWIDTH 8 0
BBX 7 12 0 0
BITMAP
0c
10
00
fe
8c
08
10
30
20
40
c2
fe
ENDCHAR
STARTCHAR hyphen
ENCODING 173
SWIDTH 392 0
DWIDTH 5 0
BBX 3 1 1 3
BITMAP
e0
ENDCHAR
STARTCHAR Zcaron
ENCODING 174
SWIDTH 610 0
DWIDTH 8 0
BBX 7 12 0 0
BITMAP
28
10
00
fe
8c
08
10
30
20
40
c2
fe
ENDCHAR
STARTCHAR Zabovedot
ENCODING 175
SWIDTH 610 0
DWIDTH 8 0
BBX 7 11 0 0
BITMAP
10
00
fe
8c
08
10
30
20
40
c2
fe
ENDCHAR
STARTCHAR degree
ENCODING 176
SWIDTH 350 0
DWIDTH 5 0
BBX 4 4 0 5
BITMAP
60
90
90
60
ENDCHAR
STARTCHAR aogonek
ENCODING 177
SWIDTH 523 0
DWIDTH 6 0
BBX 5 9 0 -3
BITMAP
e0
10
70
d0
90
78
10
20
30
ENDCHAR
STARTCHAR ogonek
ENCODING 178
SWIDTH 400 0
DWIDTH 5 0
BBX 2 3 1 -3
BITMAP
40
80
c0
ENDCHAR
STARTCHAR lstroke
ENCODING 179
SWIDTH 294 0
DWIDTH 4 0
BBX 4 10 0 0
BITMAP
c0
40
40
50
60
40
c0
40
40
e0
ENDCHAR
STARTCHAR acute
ENCODING 180
SWIDTH 400 0
DWIDTH 5 0
BBX 3 2 1 7
BITMAP
60
80
ENDCHAR
STARTCHAR lcaron
ENCODING 181
SWIDTH 480 0
DWIDTH 6 0
BBX 5 11 0 0
BITMAP
08
c8
50
40
40
40
40
40
40
40
e0
ENDCHAR
STARTCHAR sacute
ENCODING 182
SWIDTH 436 0
DWIDTH 5 0
BBX 4 9 0 0
BITMAP
30
40
00
70
90
c0
30
90
e0
ENDCHAR
STARTCHAR caron
ENCODING 183
SWIDTH 400 0
DWIDTH 5 0
BBX 3 2 0 7
BITMAP
a0
40
ENDCHAR
STARTCHAR cedilla
ENCODING 184
SWIDTH 400 0
DWIDTH 5 0
BBX 2 3 1 -3
BITMAP
80
40
c0
ENDCHAR
STARTCHAR scaron
ENCODING 185
SWIDTH 436 0
DWIDTH 5 0
BBX 4 9 0 0
BITMAP
a0
40
00
70
90
c0
30
90
e0
ENDCHAR
STARTCHAR scedilla
ENCODING 186
SWIDTH 436 0
DWIDTH 5 0
BBX 4 9 0 -3
BITMAP
70
90
c0
30
90
e0
40
20
60
ENDCHAR
STARTCHAR tcaron
ENCODING 187
SWIDTH 344 0
DWIDTH 5 0
BBX 4 10 0 0
BITMAP
20
20
40
40
f0
40
40
40
40
30
ENDCHAR
STARTCHAR zacute
ENCODING 188
SWIDTH 480 0
DWIDTH 6 0
BBX 5 9 0 0
BITMAP
18
20
00
f8
90
20
40
88
f8
ENDCHAR
STARTCHAR doubleacute
ENCODING 189
SWIDTH 400 0
DWIDTH 5 0
BBX 4 2 0 7
BITMAP
50
a0
ENDCHAR
STARTCHAR zcaron
ENCODING 190
SWIDTH 480 0
DWIDTH 6 0
BBX 5 9 0 0
BITMAP
50
20
00
f8
90
20
40
88
f8
ENDCHAR
STARTCHAR zabovedot
ENCODING 191
SWIDTH 480 0
DWIDTH 6 0
BBX 5 8 0 0
BITMAP
20
00
f8
90
20
40
88
f8
ENDCHAR
STARTCHAR Racute
ENCODING 192
SWIDTH 644 0
DWIDTH 8 0
BBX 8 12 0 0
BITMAP
0c
10
00
fc
42
42
44
78
4c
44
46
e3
ENDCHAR
STARTCHAR Aacute
ENCODING 193
SWIDTH 635 0
DWIDTH 8 0
BBX 9 10 -1 0
BITMAP
0600
0800
0000
0800
1400
1400
2200
3e00
4100
e380
ENDCHAR
STARTCHAR Acircumflex
ENCODING 194
SWIDTH 635 0
DWIDTH 8 0
BBX 9 10 -1 0
BITMAP
0800
1400
0000
0800
1400
1400
2200
3e00
4100
e380
ENDCHAR
STARTCHAR Abreve
ENCODING 195
SWIDTH 635 0
DWIDTH 8 0
BBX 9 12 -1 0
BITMAP
2200
1c00
0000
0800
0c00
1400
1600
2200
3e00
2300
4100
e380
ENDCHAR
STARTCHAR Adiaeresis
ENCODING 196
SWIDTH 635 0
DWIDTH 8 0
BBX 9 9 -1 0
BITMAP
1400
0000
0800
1400
1400
2200
3e00
4100
e380
ENDCHAR
STARTCHAR Lacute
ENCODING 197
SWIDTH 568 0
DWIDTH 7 0
BBX 6 12 0 0
BITMAP
30
40
00
e0
40
40
40
40
40
40
44
fc
ENDCHAR
STARTCHAR Cacute
ENCODING 198
SWIDTH 684 0
DWIDTH 8 0
BBX 7 12 0 0
BITMAP
0c
10
00
3c
46
c0
80
80
80
c2
46
3c
ENDCHAR
STARTCHAR Ccedilla
ENCODING 199
SWIDTH 680 0
DWIDTH 8 0
BBX 7 12 0 -3
BITMAP
3c
46
c0
80
80
80
c2
46
3c
10
08
18
ENDCHAR
STARTCHAR Ccaron
ENCODING 200
SWIDTH 684 0
DWIDTH 8 0
BBX 7 12 0 0
BITMAP
28
10
00
3c
46
c0
80
80
80
c2
46
3c
ENDCHAR
STARTCHAR Eacute
ENCODING 201
SWIDTH 606 0
DWIDTH 8 0
BBX 7 10 0 0
BITMAP
18
20
00
fc
44
40
78
40
42
fe
ENDCHAR
STARTCHAR Eogonek
ENCODING 202
SWIDTH 606 0
DWIDTH 8 0
BBX 7 12 0 -3
BITMAP
fc
44
40
48
78
48
40
42
fe
08
10
18
ENDCHAR
STARTCHAR Ediaeresis
ENCODING 203
SWIDTH 606 0
DWIDTH 8 0
BBX 7 9 0 0
BITMAP
50
00
fc
44
40
78
40
42
fe
ENDCHAR
STARTCHAR Ecaron
ENCODING 204
SWIDTH 606 0
DWIDTH 8 0
BBX 7 12 0 0
BITMAP
50
20
00
fc
44
40
48
78
48
40
42
fe
ENDCHAR
STARTCHAR Iacute
ENCODING 205
SWIDTH 349 0
DWIDTH 4 0
BBX 3 10 0 0
BITMAP
60
80
00
e0
40
40
40
40
40
e0
ENDCHAR
STARTCHAR Icircumflex
ENCODING 206
SWIDTH 349 0
DWIDTH 4 0
BBX 3 10 0 0
BITMAP
40
a0
00
e0
40
40
40
40
40
e0
ENDCHAR
STARTCHAR Dcaron
ENCODING 207
SWIDTH 779 0
DWIDTH 9 0
BBX 8 12 0 0
BITMAP
28
10
00
fc
42
43
41
41
41
43
42
fc
ENDCHAR
STARTCHAR Dstroke
ENCODING 208
SWIDTH 785 0
DWIDTH 9 0
BBX 8 9 0 0
BITMAP
fc
42
43
41
f1
41
43
42
fc
ENDCHAR
STARTCHAR Nacute
ENCODING 209
SWIDTH 780 0
DWIDTH 10 0
BBX 9 12 0 0
BITMAP
0600
0800
0000
e380
6100
5100
5900
4900
4500
4700
4300
e100
ENDCHAR
STARTCHAR Ncaron
ENCODING 210
SWIDTH 780 0
DWIDTH 10 0
BBX 9 12 0 0
BITMAP
1400
0800
0000
e380
6100
5100
5900
4900
4500
4700
4300
e100
ENDCHAR
STARTCHAR Oacute
ENCODING 211
SWIDTH 762 0
DWIDTH 9 0
BBX 8 10 0 0
BITMAP
0c
10
00
3c
42
81
81
81
42
3c
ENDCHAR
STARTCHAR Ocircumflex
ENCODING 212
SWIDTH 762 0
DWIDTH 9 0
BBX 8 10 0 0
BITMAP
10
28
00
3c
42
81
81
81
42
3c
ENDCHAR
STARTCHAR Odoubleacute
ENCODING 213
SWIDTH 762 0
DWIDTH 9 0
BBX 8 12 0 0
BITMAP
14
28
00
3c
42
c3
81
81
81
c3
42
3c
ENDCHAR
STARTCHAR Odiaeresis
ENCODING 214
SWIDTH 762 0
DWIDTH 9 0
BBX 8 9 0 0
BITMAP
28
00
3c
42
81
81
81
42
3c
ENDCHAR
STARTCHAR multiply
ENCODING 215
SWIDTH 570 0
DWIDTH 7 0
BBX 5 5 1 1
BITMAP
88
50
20
50
88
ENDCHAR
STARTCHAR Rcaron
ENCODING 216
SWIDTH 644 0
DWIDTH 8 0
BBX 8 12 0 0
BITMAP
28
10
00
fc
42
42
44
78
4c
44
46
e3
ENDCHAR
STARTCHAR Uring
ENCODING 217
SWIDTH 791 0
DWIDTH 10 0
BBX 9 13 0 0
BITMAP
0c00
1200
0c00
0000
e380
4100
4100
4100
4100
4100
4100
6300
3e00
ENDCHAR
STARTCHAR Uacute
ENCODING 218
SWIDTH 791 0
DWIDTH 10 0
BBX 9 10 0 0
BITMAP
0c00
1000
0000
e380
4100
4100
4100
4100
2200
1c00
ENDCHAR
STARTCHAR Udoubleacute
ENCODING 219
SWIDTH 791 0
DWIDTH 10 0
BBX 9 12 0 0
BITMAP
0a00
1400
0000
e380
4100
4100
4100
4100
4100
4100
6300
3e00
ENDCHAR
STARTCHAR Udiaeresis
ENCODING 220
SWIDTH 791 0
DWIDTH 10 0
BBX 9 9 0 0
BITMAP
1400
0000
e380
4100
4100
4100
4100
2200
1c00
ENDCHAR
STARTCHAR Yacute
ENCODING 221
SWIDTH 588 0
DWIDTH 8 0
BBX 7 10 0 0
BITMAP
0c
10
00
ee
44
28
28
10
10
38
ENDCHAR
STARTCHAR Tcedilla
ENCODING 222
SWIDTH 621 0
DWIDTH 8 0
BBX 7 12 0 -3
BITMAP
fe
92
10
10
10
10
10
10
38
10
08
18
ENDCHAR
STARTCHAR ssharp
ENCODING 223
SWIDTH 601 0
DWIDTH 8 0
BBX 7 10 0 0
BITMAP
38
44
44
48
50
58
4c
46
52
dc
ENDCHAR
STARTCHAR racute
ENCODING 224
SWIDTH 389 0
DWIDTH 5 0
BBX 5 9 0 0
BITMAP
18
20
00
d8
60
40
40
40
e0
ENDCHAR
STARTCHAR aacute
ENCODING 225
SWIDTH 523 0
DWIDTH 6 0
BBX 5 9 0 0
BITMAP
60
80
00
e0
10
70
d0
90
78
ENDCHAR
STARTCHAR acircumflex
ENCODING 226
SWIDTH 523 0
DWIDTH 6 0
BBX 5 9 0 0
BITMAP
40
a0
00
e0
10
70
d0
90
78
ENDCHAR
STARTCHAR abreve
ENCODING 227
SWIDTH 523 0
DWIDTH 6 0
BBX 6 9 -1 0
BITMAP
88
70
00
70
08
38
68
48
3c
ENDCHAR
STARTCHAR adiaeresis
ENCODING 228
SWIDTH 523 0
DWIDTH 6 0
BBX 5 8 0 0
BITMAP
a0
00
e0
10
70
d0
90
78
ENDCHAR
STARTCHAR lacute
ENCODING 229
SWIDTH 279 0
DWIDTH 4 0
BBX 3 13 0 0
BITMAP
60
80
00
c0
40
40
40
40
40
40
40
40
e0
ENDCHAR
STARTCHAR cacute
ENCODING 230
SWIDTH 496 0
DWIDTH 6 0
BBX 5 9 0 0
BITMAP
18
20
00
70
d8
80
80
c8
70
ENDCHAR
STARTCHAR ccedilla
ENCODING 231
SWIDTH 496 0
DWIDTH 6 0
BBX 5 9 0 -3
BITMAP
70
d8
80
80
c8
70
40
20
60
ENDCHAR
STARTCHAR ccaron
ENCODING 232
SWIDTH 496 0
DWIDTH 6 0
BBX 5 9 0 0
BITMAP
50
20
00
70
d8
80
80
c8
70
ENDCHAR
STARTCHAR eacute
ENCODING 233
SWIDTH 514 0
DWIDTH 6 0
BBX 5 9 0 0
BITMAP
30
40
00
70
88
f8
80
c8
70
ENDCHAR
STARTCHAR eogonek
ENCODING 234
SWIDTH 514 0
DWIDTH 6 0
BBX 5 9 0 -3
BITMAP
70
88
f8
80
c8
70
10
20
30
ENDCHAR
STARTCHAR ediaeresis
ENCODING 235
SWIDTH 514 0
DWIDTH 6 0
BBX 5 8 0 0
BITMAP
50
00
70
88
f8
80
c8
70
ENDCHAR
STARTCHAR ecaron
ENCODING 236
SWIDTH 514 0
DWIDTH 6 0
BBX 5 9 0 0
BITMAP
50
20
00
70
88
f8
80
c8
70
ENDCHAR
STARTCHAR iacute
ENCODING 237
SWIDTH 291 0
DWIDTH 4 0
BBX 3 9 0 0
BITMAP
60
80
00
c0
40
40
40
40
e0
ENDCHAR
STARTCHAR icircumflex
ENCODING 238
SWIDTH 291 0
DWIDTH 4 0
BBX 3 9 0 0
BITMAP
40
a0
00
c0
40
40
40
40
e0
ENDCHAR
STARTCHAR dcaron
ENCODING 239
SWIDTH 800 0
DWIDTH 10 0
BBX 9 11 0 0
BITMAP
0080
0c80
0500
0400
0400
7400
cc00
8400
8400
cc00
7600
ENDCHAR
STARTCHAR dstroke
ENCODING 240
SWIDTH 720 0
DWIDTH 9 0
BBX 8 10 0 0
BITMAP
0c
04
1f
04
74
cc
84
84
cc
76
ENDCHAR
STARTCHAR nacute
ENCODING 241
SWIDTH 619 0
DWIDTH 8 0
BBX 7 9 0 0
BITMAP
18
20
00
d8
6c
44
44
44
ee
ENDCHAR
STARTCHAR ncaron
ENCODING 242
SWIDTH 619 0
DWIDTH 8 0
BBX 7 9 0 0
BITMAP
50
20
00
d8
6c
44
44
44
ee
ENDCHAR
STARTCHAR oacute
ENCODING 243
SWIDTH 577 0
DWIDTH 7 0
BBX 6 9 0 0
BITMAP
18
20
00
78
cc
84
84
cc
78
ENDCHAR
STARTCHAR ocircumflex
ENCODING 244
SWIDTH 577 0
DWIDTH 7 0
BBX 6 9 0 0
BITMAP
20
50
00
78
cc
84
84
cc
78
ENDCHAR
STARTCHAR odoubleacute
ENCODING 245
SWIDTH 577 0
DWIDTH 7 0
BBX 6 9 0 0
BITMAP
28
50
00
78
cc
84
84
cc
78
ENDCHAR
STARTCHAR odiaeresis
ENCODING 246
SWIDTH 577 0
DWIDTH 7 0
BBX 6 8 0 0
BITMAP
50
00
78
cc
84
84
cc
78
ENDCHAR
STARTCHAR division
ENCODING 247
SWIDTH 570 0
DWIDTH 7 0
BBX 5 5 1 1
BITMAP
20
00
f8
00
20
ENDCHAR
STARTCHAR rcaron
ENCODING 248
SWIDTH 389 0
DWIDTH 5 0
BBX 5 9 0 0
BITMAP
50
20
00
d8
60
40
40
40
e0
ENDCHAR
STARTCHAR uring
ENCODING 249
SWIDTH 606 0
DWIDTH 8 0
BBX 7 10 0 0
BITMAP
30
48
30
00
cc
44
44
44
6c
36
ENDCHAR
STARTCHAR uacute
ENCODING 250
SWIDTH 606 0
DWIDTH 8 0
BBX 7 9 0 0
BITMAP
18
20
00
cc
44
44
44
6c
36
ENDCHAR
STARTCHAR udoubleacute
ENCODING 251
SWIDTH 606 0
DWIDTH 8 0
BBX 7 9 0 0
BITMAP
28
50
00
cc
44
44
44
6c
36
ENDCHAR
STARTCHAR udiaeresis
ENCODING 252
SWIDTH 606 0
DWIDTH 8 0
BBX 7 8 0 0
BITMAP
28
00
cc
44
44
44
6c
36
ENDCHAR
STARTCHAR yacute
ENCODING 253
SWIDTH 506 0
DWIDTH 6 0
BBX 7 12 -1 -3
BITMAP
18
20
00
ee
44
64
28
38
10
10
20
60
ENDCHAR
STARTCHAR tcedilla
ENCODING 254
SWIDTH 344 0
DWIDTH 5 0
BBX 4 10 0 -3
BITMAP
40
f0
40
40
40
40
30
40
20
60
ENDCHAR
STARTCHAR abovedot
ENCODING 255
SWIDTH 400 0
DWIDTH 5 0
BBX 1 1 2 7
BITMAP
80
ENDCHAR
ENDFONT
